<svg width="107" height="107" viewBox="0 0 107 107" fill="none" xmlns="http://www.w3.org/2000/svg">
<path d="M53.5001 89.8801C33.3841 89.8801 17.1201 73.6161 17.1201 53.5001C17.1201 33.3841 33.3841 17.1201 53.5001 17.1201C73.6161 17.1201 89.8801 33.3841 89.8801 53.5001C89.8801 73.6161 73.6161 89.8801 53.5001 89.8801ZM53.5001 21.4001C35.7381 21.4001 21.4001 35.7381 21.4001 53.5001C21.4001 71.2621 35.7381 85.6001 53.5001 85.6001C71.2621 85.6001 85.6001 71.2621 85.6001 53.5001C85.6001 35.7381 71.2621 21.4001 53.5001 21.4001Z" fill="white"/>
<path d="M53.4999 73.6161L32.7419 52.8581L35.7379 49.8621L53.4999 67.6241L71.2619 49.8621L74.2579 52.8581L53.4999 73.6161Z" fill="white"/>
<path d="M51.3601 34.24H55.6401V70.62H51.3601V34.24Z" fill="white"/>
</svg>
