<svg width="32" height="32" viewBox="0 0 32 32" fill="none" xmlns="http://www.w3.org/2000/svg">
<path d="M32 16C32 24.8368 24.8368 32 16 32C7.16318 32 0 24.8368 0 16C0 7.16318 7.16318 6.18043e-07 16 6.18043e-07C24.8368 6.18043e-07 32 7.16318 32 16ZM1.74059 16C1.74059 23.8326 8.16736 30.2594 16 30.2594C23.8326 30.2594 30.2594 23.8326 30.2594 16C30.2594 8.16736 23.8326 1.74059 16 1.74059C8.16736 1.74059 1.74059 8.16736 1.74059 16Z" fill="#E1E1E1"/>
<path d="M25 16.7226L23.7518 18L16 9.69677L8.24819 18L7 16.7226L16 7L25 16.7226Z" fill="#E1E1E1"/>
<path d="M17 8V25H15L15 8H17Z" fill="#E1E1E1"/>
</svg>
