<svg width="45" height="45" viewBox="0 0 45 45" fill="none" xmlns="http://www.w3.org/2000/svg">
<path d="M5.5957 28.208L15.8234 8.71877L25.8851 3.32581L28.8776 4.83612L18.8763 10.4864L29.2095 41.5477L25.8851 39.6141L18.1507 21.7871L7.99758 29.4919L5.5957 28.208Z" fill="white"/>
<path d="M35.494 23.161C37.5801 23.161 39.2712 21.5851 39.2712 19.6411C39.2712 17.6972 37.5801 16.1213 35.494 16.1213C33.4079 16.1213 31.7168 17.6972 31.7168 19.6411C31.7168 21.5851 33.4079 23.161 35.494 23.161Z" fill="white"/>
<path d="M38.2498 18.0703C37.9101 17.588 37.4514 17.2019 36.9184 16.9492C36.3853 16.6966 35.796 16.5862 35.2076 16.6287C34.6193 16.6711 34.0519 16.865 33.5607 17.1916C33.0694 17.5181 32.6709 17.9661 32.404 18.4922C32.1418 19.0583 32.0577 19.6908 32.163 20.3058C32.2682 20.9208 32.5577 21.4893 32.9932 21.9361C34.1878 22.0313 35.3767 21.693 36.3421 20.983C37.3075 20.273 37.9848 19.239 38.2498 18.0703ZM28.091 4.78123L25.9156 3.58732L16.4431 8.85935L17.1982 9.26717L18.634 10.0223L21.2342 8.5781L28.0924 4.75592L28.091 4.78123ZM28.9671 4.41842C29.0235 4.43218 29.0754 4.46024 29.1178 4.4999C29.1601 4.53956 29.1916 4.58947 29.209 4.64482L32.3815 14.0062C32.414 14.0805 32.4164 14.1644 32.3884 14.2404C32.3603 14.3165 32.304 14.3787 32.231 14.414C31.0199 15.0781 30.0686 16.1317 29.531 17.404C28.9935 18.6764 28.9014 20.0929 29.2695 21.4242C29.7088 22.8727 30.6411 24.1218 31.9047 24.955C33.1684 25.7882 34.6838 26.153 36.1882 25.9861C36.2708 25.9808 36.353 26.0012 36.4235 26.0445C36.494 26.0879 36.5493 26.1519 36.582 26.2279L39.8599 35.8369C39.8806 35.9143 39.8771 35.9961 39.8499 36.0715C39.8228 36.1469 39.7733 36.2122 39.7081 36.2587L29.6323 42.1495C29.584 42.1691 29.5325 42.1796 29.4804 42.1805C29.3875 42.1962 29.2919 42.1804 29.209 42.1354L25.6737 39.9136C25.6092 39.8802 25.5566 39.8276 25.5232 39.7631L18.6185 23.8865L8.10401 29.8687C8.0411 29.9003 7.97214 29.9181 7.90178 29.9207C7.83143 29.9234 7.76133 29.9109 7.6962 29.8842L5.30557 28.5244C5.2274 28.4824 5.16826 28.4121 5.14028 28.3279C5.1123 28.2437 5.11761 28.152 5.1551 28.0715L15.3701 8.68779C15.4083 8.62151 15.4664 8.56888 15.536 8.53732L25.7187 2.85748C25.7744 2.8272 25.8367 2.81134 25.9001 2.81134C25.9635 2.81134 26.0258 2.8272 26.0815 2.85748L28.9671 4.41842ZM16.3376 9.62435L15.8384 9.36842L5.99464 28.1165L7.79182 29.129L16.2828 18.0197C16.3248 17.969 16.3781 17.9289 16.4384 17.9025C16.4987 17.8761 16.5644 17.8643 16.6301 17.8678C16.6946 17.8794 16.7555 17.906 16.808 17.9453C16.8605 17.9846 16.9031 18.0356 16.9324 18.0942L26.1785 39.3961L28.6493 40.9219L18.724 11.9067L18.3021 10.6973L16.3235 9.61029L16.3376 9.62435ZM31.5659 20.804C31.3405 19.9679 31.4044 19.0801 31.7473 18.2849C32.0901 17.4897 32.6918 16.8337 33.4545 16.4236C34.2286 15.9906 35.1207 15.8157 36.0011 15.9245C36.8814 16.0332 37.7041 16.4199 38.3496 17.0283C39.0801 17.7307 39.502 18.6944 39.5225 19.7077C39.5431 20.7209 39.1607 21.7009 38.4593 22.4325L38.3496 22.5422C37.8434 23.0269 37.2219 23.3746 36.5439 23.5524C35.8659 23.7301 35.1538 23.7321 34.4748 23.5582C33.7958 23.3842 33.1724 23.04 32.6634 22.5581C32.1544 22.0762 31.7767 21.4725 31.5659 20.804Z" fill="black"/>
</svg>
