<svg width="45" height="45" viewBox="0 0 45 45" fill="none" xmlns="http://www.w3.org/2000/svg">
<g clip-path="url(#clip0_180_28)">
<path d="M34.4531 0H10.5469C4.722 0 0 4.722 0 10.5469V34.4531C0 40.278 4.722 45 10.5469 45H34.4531C40.278 45 45 40.278 45 34.4531V10.5469C45 4.722 40.278 0 34.4531 0Z" fill="#023430"/>
<path d="M30.089 18.9125C28.2368 10.742 24.3766 8.56687 23.3919 7.02932C22.9856 6.35208 22.6259 5.64797 22.3152 4.92188C22.2632 5.64785 22.1676 6.10488 21.5506 6.65543C20.3119 7.75986 15.0507 12.0472 14.6079 21.3307C14.1954 29.9865 20.9712 35.3238 21.8663 35.8755C22.5546 36.2143 23.3929 35.8828 23.802 35.5718C27.0682 33.3302 31.5309 27.354 30.0925 18.9125" fill="#10AA50"/>
<path d="M22.5959 31.2664C22.4254 33.4088 22.3032 34.6537 21.8701 35.878C21.8701 35.878 22.1544 37.9176 22.354 40.0781H23.0605C23.2292 38.5567 23.4866 37.0464 23.8311 35.5549C22.9165 35.1049 22.6311 33.1463 22.5959 31.2664Z" fill="#B8C4C2"/>
<path d="M23.8296 35.5561C22.9054 35.1291 22.638 33.1293 22.5969 31.2664C22.8253 28.1932 22.892 25.1101 22.7966 22.0299C22.7481 20.4138 22.8194 7.06075 22.3984 5.10571C22.6863 5.76795 23.0181 6.41017 23.3918 7.02806C24.3765 8.56685 28.2379 10.742 30.0889 18.9125C31.5308 27.3396 27.0923 33.3 23.8296 35.5561Z" fill="#12924F"/>
</g>
<defs>
<clipPath id="clip0_180_28">
<rect width="45" height="45" fill="white"/>
</clipPath>
</defs>
</svg>
