<svg width="45" height="45" viewBox="0 0 45 45" fill="none" xmlns="http://www.w3.org/2000/svg">
<g clip-path="url(#clip0_180_24)">
<path d="M22.5 45C34.9264 45 45 34.9264 45 22.5C45 10.0736 34.9264 0 22.5 0C10.0736 0 0 10.0736 0 22.5C0 34.9264 10.0736 45 22.5 45Z" fill="black"/>
<path d="M37.3771 39.3799L17.2853 13.5H13.5V31.4926H16.5284V17.3457L34.9995 41.2112C35.8319 40.6544 36.6262 40.0426 37.3771 39.3799Z" fill="url(#paint0_linear_180_24)"/>
<path d="M28.75 13.5H31.7499V31.5H28.75V13.5Z" fill="url(#paint1_linear_180_24)"/>
</g>
<defs>
<linearGradient id="paint0_linear_180_24" x1="27.25" y1="29.125" x2="36.1249" y2="40.1249" gradientUnits="userSpaceOnUse">
<stop stop-color="white"/>
<stop offset="1" stop-color="white" stop-opacity="0"/>
</linearGradient>
<linearGradient id="paint1_linear_180_24" x1="30.2499" y1="13.5" x2="30.1996" y2="26.7187" gradientUnits="userSpaceOnUse">
<stop stop-color="white"/>
<stop offset="1" stop-color="white" stop-opacity="0"/>
</linearGradient>
<clipPath id="clip0_180_24">
<rect width="45" height="45" fill="white"/>
</clipPath>
</defs>
</svg>
