<svg width="45" height="45" viewBox="0 0 45 45" fill="none" xmlns="http://www.w3.org/2000/svg">
<path d="M22.5001 42.1875C21.9689 42.1878 21.447 42.0481 20.987 41.7825L16.172 38.932C15.4534 38.5299 15.8035 38.3878 16.0412 38.3049C16.8056 38.0691 17.5374 37.7384 18.2195 37.3205C18.2765 37.2937 18.3395 37.282 18.4023 37.2867C18.4651 37.2914 18.5257 37.3122 18.5781 37.3472L22.2779 39.5452C22.3468 39.5816 22.4236 39.6007 22.5015 39.6007C22.5795 39.6007 22.6562 39.5816 22.7251 39.5452L37.1532 31.2174C37.221 31.1772 37.2771 31.12 37.3159 31.0514C37.3546 30.9828 37.3747 30.9052 37.374 30.8264V14.168C37.3742 14.088 37.3537 14.0093 37.3145 13.9396C37.2754 13.8699 37.2188 13.8115 37.1504 13.77L22.7223 5.44923C22.6544 5.41051 22.5776 5.39015 22.4994 5.39015C22.4212 5.39015 22.3444 5.41051 22.2765 5.44923L7.85683 13.7728C7.78805 13.8135 7.73094 13.8713 7.69103 13.9405C7.65111 14.0097 7.62976 14.0881 7.62902 14.168V30.8194C7.62993 30.8978 7.6513 30.9746 7.69101 31.0421C7.73072 31.1097 7.7874 31.1658 7.85542 31.2047L11.8126 33.4884C13.9571 34.56 15.2706 33.2972 15.2706 32.0288V15.5883C15.2706 15.4764 15.315 15.3691 15.3941 15.29C15.4733 15.2109 15.5806 15.1664 15.6925 15.1664H17.5206C17.6325 15.1664 17.7398 15.2109 17.8189 15.29C17.898 15.3691 17.9425 15.4764 17.9425 15.5883V32.0302C17.9425 34.8919 16.3843 36.5302 13.6703 36.5302C12.4995 36.5497 11.3472 36.2367 10.3473 35.6274L6.55464 33.4519C6.0946 33.1833 5.71287 32.799 5.44742 32.3372C5.18196 31.8754 5.04202 31.3521 5.04152 30.8194V14.168C5.03986 13.6343 5.17885 13.1096 5.44449 12.6467C5.71012 12.1838 6.09302 11.7991 6.55464 11.5313L20.9842 3.20064C21.4491 2.94684 21.9704 2.81384 22.5001 2.81384C23.0298 2.81384 23.5511 2.94684 24.016 3.20064L38.4442 11.5313C38.9041 11.7994 39.2858 12.1832 39.5515 12.6445C39.8172 13.1058 39.9576 13.6286 39.9587 14.1609V30.8194C39.9581 31.3522 39.8179 31.8756 39.5522 32.3374C39.2865 32.7993 38.9045 33.1835 38.4442 33.4519L24.016 41.7825C23.5552 42.0486 23.0323 42.1883 22.5001 42.1875Z" fill="#83CD29"/>
<path d="M19.7637 25.2464C19.7637 25.1345 19.8081 25.0272 19.8872 24.9481C19.9664 24.869 20.0737 24.8245 20.1855 24.8245H22.0516C22.1513 24.8249 22.2477 24.8605 22.3237 24.9251C22.3996 24.9897 22.4502 25.0791 22.4665 25.1775C22.7477 27.0774 23.5915 28.035 27.4066 28.035C30.4455 28.035 31.7407 27.3474 31.7407 25.7344C31.7407 24.8049 31.3737 24.1144 26.6501 23.6517C22.7013 23.2608 20.2601 22.3861 20.2601 19.2305C20.2601 16.3195 22.714 14.5828 26.8273 14.5828C31.4496 14.5828 33.7376 16.1874 34.0273 19.6299C34.0317 19.6873 34.0243 19.7451 34.0055 19.7996C33.9868 19.8541 33.957 19.9042 33.9181 19.9467C33.8793 19.9893 33.8321 20.0235 33.7795 20.0471C33.7269 20.0707 33.6701 20.0833 33.6124 20.0841H31.7337C31.6394 20.0828 31.5483 20.0499 31.4749 19.9908C31.4015 19.9316 31.35 19.8496 31.3287 19.7578C30.8801 17.7595 29.7818 17.1211 26.8287 17.1211C23.5099 17.1211 23.1246 18.277 23.1246 19.1433C23.1246 20.1924 23.5802 20.4989 28.0605 21.091C32.4945 21.6774 34.601 22.507 34.601 25.6233C34.601 28.7677 31.9798 30.5677 27.408 30.5677C21.087 30.5761 19.7637 27.6778 19.7637 25.2464Z" fill="#83CD29"/>
</svg>
