<svg width="45" height="45" viewBox="0 0 45 45" fill="none" xmlns="http://www.w3.org/2000/svg">
<path d="M39.6812 23.4148C42.8467 25.27 44.974 28.6977 44.9807 32.6226C44.9919 38.5306 40.1935 43.3287 34.2651 43.3382C28.3367 43.3494 23.5217 38.5675 23.5108 32.6595C23.5037 28.7346 25.6187 25.3002 28.7786 23.4324L31.8632 28.6278C31.9402 28.7578 31.8962 28.9255 31.7711 29.011C30.6039 29.802 29.8389 31.1365 29.8417 32.6486C29.8459 35.0726 31.822 37.035 34.2538 37.0294C36.6863 37.0252 38.654 35.0571 38.6497 32.6335C38.6473 31.1217 37.8781 29.7893 36.7081 29.0025C36.5833 28.9175 36.5379 28.7498 36.6145 28.6193L39.6812 23.4148Z" fill="#128DFF"/>
<path d="M15.9879 23.3515C14.386 22.4575 12.5816 21.9894 10.7472 21.992C4.81736 21.992 0.012207 26.7821 0.012207 32.6901C0.012207 38.5977 4.81736 43.3881 10.7472 43.3881C16.7047 43.3881 21.628 38.3478 21.4783 32.4151H15.4356C15.2763 32.4151 15.1515 32.5498 15.1501 32.7076C15.135 35.0712 13.1561 37.079 10.7472 37.079C8.31365 37.079 6.34314 35.1137 6.34314 32.6897C6.34314 30.2657 8.31365 28.3008 10.7472 28.3008C11.3831 28.3008 11.9889 28.4355 12.5352 28.6784C12.6699 28.7374 12.8291 28.6924 12.9033 28.5673L15.9879 23.3515Z" fill="#8BDA67"/>
<path d="M16.8557 21.6731C13.6944 19.8123 11.5728 16.3807 11.5728 12.4559C11.5728 6.54785 16.3793 1.75781 22.3077 1.75781C28.2361 1.75781 33.0427 6.54785 33.0427 12.4559C33.0427 16.3807 30.921 19.8123 27.7597 21.6731L24.6832 16.4742C24.6062 16.3441 24.6502 16.1764 24.7767 16.091C25.9439 15.3014 26.7114 13.9679 26.7114 12.4559C26.7114 10.0322 24.7395 8.06695 22.3074 8.06695C19.8753 8.06695 17.9033 10.0322 17.9033 12.4562C17.9033 13.9679 18.6708 15.3014 19.8383 16.0914C19.9649 16.1764 20.0085 16.3438 19.9315 16.4746L16.8557 21.6731Z" fill="#FF2A44"/>
</svg>
