<svg width="45" height="45" viewBox="0 0 45 45" fill="none" xmlns="http://www.w3.org/2000/svg">
<g clip-path="url(#clip0_179_4)">
<path d="M14.2964 0.000717387C14.0654 0.00774864 13.8169 0.0921236 13.5346 0.311147C12.8431 0.0485299 12.173 -0.0421732 11.5732 0.492202C10.6476 0.373725 10.347 0.618061 10.1188 0.902827C9.91595 0.898608 8.59865 0.696811 7.99466 1.58486C6.47697 1.40767 5.99673 2.46376 6.54025 3.44919C6.23052 3.92205 5.90884 4.38892 6.63377 5.28998C6.37783 5.79201 6.53673 6.33623 7.14107 6.99576C6.98146 7.70134 7.2947 8.1988 7.85685 8.58693C7.75138 9.55232 8.7558 10.1141 9.05568 10.3138C9.17064 10.8763 9.41076 11.4075 10.5579 11.7007C10.7467 12.5399 11.4365 12.6844 12.1037 12.8602C9.89767 14.1237 8.00556 15.7852 8.01857 19.8633L7.69513 20.4311C5.16564 21.9463 2.88963 26.8161 6.44849 30.7747C6.68123 32.014 7.07076 32.9038 7.4181 33.8889C7.93736 37.8584 11.3257 39.7167 12.2194 39.9368C13.5293 40.9191 14.924 41.8511 16.8115 42.5043C18.5904 44.312 20.5184 45.0007 22.4569 45H22.5423C24.4805 45.0011 26.4085 44.312 28.1874 42.5043C30.0753 41.8514 31.4695 40.9191 32.7791 39.9368C33.6731 39.7167 37.0612 37.8584 37.5804 33.8885C37.9274 32.9038 38.3176 32.014 38.5504 30.7747C42.1092 26.8161 39.8332 21.9456 37.3034 20.43L36.9799 19.8626C36.9929 15.7852 35.1008 14.1233 32.8948 12.8595C33.562 12.6837 34.2518 12.5392 34.441 11.7004C35.5874 11.4068 35.8275 10.876 35.9425 10.3135C36.2427 10.1131 37.2468 9.55197 37.1413 8.58587C37.7038 8.19845 38.017 7.70029 37.8578 6.99505C38.4618 6.33587 38.6207 5.7913 38.364 5.28962C39.0897 4.38892 38.7676 3.92169 38.4579 3.44884C39.0014 2.46376 38.5222 1.40732 37.0035 1.58415C36.3995 0.696811 35.0826 0.898608 34.8794 0.902124C34.6512 0.617358 34.3506 0.373374 33.4249 0.49185C32.8259 -0.0425248 32.1554 0.0488814 31.4639 0.311147C30.6434 -0.326587 30.0999 0.184585 29.4794 0.377944C28.4855 0.0580221 28.2584 0.496421 27.7701 0.674663C26.6862 0.44896 26.3568 0.940092 25.8372 1.45865L25.2325 1.44705C23.5981 2.39591 22.7856 4.3281 22.4984 5.32126C22.2101 4.32775 21.4001 2.39556 19.7657 1.44705L19.161 1.4583C18.6407 0.939741 18.3113 0.44896 17.2274 0.674663C16.7394 0.496421 16.5127 0.0580221 15.5181 0.377944C15.1106 0.251381 14.7362 -0.0129935 14.2954 0.000365825L14.2964 0.000717387Z" fill="#050606"/>
<path d="M11.0745 4.17585C15.4117 6.37803 17.9328 8.16011 19.314 9.67745C18.6071 12.4699 14.9167 12.5975 13.5671 12.5188C13.8434 12.3922 14.0744 12.2403 14.1559 12.008C13.8174 11.7707 12.6168 11.9826 11.7787 11.5186C12.1003 11.4528 12.2512 11.3889 12.4016 11.1551C11.6096 10.9062 10.757 10.6917 10.255 10.2797C10.5257 10.2832 10.7788 10.3394 11.1321 10.0976C10.4227 9.72139 9.66611 9.42292 9.07795 8.84741C9.44428 8.83862 9.84014 8.84389 9.9551 8.711C9.30576 8.31514 8.75768 7.87429 8.30486 7.39264C8.81814 7.45382 9.03471 7.40108 9.15916 7.31249C8.66768 6.81784 8.04682 6.39983 7.7508 5.78987C8.13189 5.9196 8.48064 5.96917 8.73166 5.77827C8.56467 5.40772 7.85064 5.18905 7.43896 4.3235C7.8401 4.36182 8.26584 4.40964 8.35092 4.3235C8.16459 3.57608 7.84537 3.15632 7.53178 2.72108C8.39029 2.70843 9.69107 2.72425 9.63236 2.65253L9.1015 2.1185C9.93998 1.89632 10.7981 2.15436 11.4211 2.34596C11.7006 2.12835 11.4162 1.85378 11.0748 1.57253C11.7878 1.66675 12.4315 1.82846 13.0133 2.0503C13.3245 1.77362 12.8115 1.49729 12.5633 1.22061C13.6648 1.42628 14.1313 1.71526 14.5943 2.0046C14.9311 1.68714 14.6137 1.41749 14.3869 1.14116C15.2173 1.44386 15.6448 1.83514 16.0951 2.22046C16.2477 2.01796 16.4826 1.86889 16.1988 1.37952C16.7881 1.71421 17.2324 2.10866 17.5601 2.55022C17.925 2.32171 17.7777 2.00882 17.7798 1.72053C18.3922 2.21167 18.7814 2.73374 19.2571 3.24386C19.3527 3.1753 19.4364 2.94186 19.5109 2.57307C20.9724 3.96948 23.0371 7.48721 20.0418 8.88186C17.4922 6.81116 14.4474 5.30542 11.0734 4.17585H11.0745ZM34.0466 4.17585C29.7094 6.37839 27.1883 8.15975 25.8071 9.67745C26.5144 12.4699 30.2051 12.5975 31.554 12.5188C31.2777 12.3922 31.0471 12.2403 30.9655 12.008C31.3044 11.7707 32.5047 11.9826 33.3431 11.5186C33.0211 11.4528 32.8699 11.3889 32.7198 11.1551C33.5115 10.9062 34.3648 10.6917 34.8661 10.2797C34.5954 10.2832 34.3423 10.3394 33.989 10.0976C34.6984 9.72139 35.455 9.42292 36.0435 8.84741C35.6765 8.83862 35.2813 8.84389 35.1663 8.711C35.8157 8.31514 36.3634 7.87429 36.8166 7.39264C36.3033 7.45382 36.0867 7.40108 35.9623 7.31249C36.4534 6.81784 37.0746 6.39983 37.3706 5.78987C36.9896 5.9196 36.6408 5.96917 36.3898 5.77827C36.5564 5.40772 37.2704 5.18905 37.6825 4.3235C37.281 4.36182 36.8556 4.40964 36.7702 4.3235C36.9572 3.57608 37.2764 3.15596 37.5897 2.72038C36.7312 2.70807 35.4304 2.72389 35.4891 2.65253L36.0206 2.1185C35.1815 1.89596 34.3233 2.15366 33.7007 2.34526C33.4208 2.128 33.7056 1.85343 34.0466 1.57253C33.3344 1.66639 32.6899 1.82776 32.1081 2.04995C31.797 1.77327 32.3099 1.49694 32.5581 1.22026C31.457 1.42593 30.9908 1.71491 30.5271 2.00425C30.1907 1.68678 30.5081 1.41714 30.7346 1.14081C29.9042 1.4435 29.4767 1.83479 29.0267 2.22011C28.8744 2.01761 28.6389 1.86854 28.9226 1.37917C28.3334 1.71386 27.889 2.10831 27.5613 2.54987C27.1964 2.321 27.3437 2.00846 27.3416 1.72018C26.7292 2.21132 26.34 2.73374 25.8647 3.2435C25.7687 3.17495 25.6851 2.94116 25.6105 2.57272C24.1494 3.96913 22.0844 7.48686 25.0797 8.88151C27.6281 6.81011 30.6723 5.30471 34.047 4.1755" fill="#63C54D"/>
<path d="M27.8059 32.6137C27.821 35.2195 25.507 37.3433 22.6379 37.357C19.7688 37.3707 17.4309 35.2694 17.4155 32.6633V32.6137C17.4004 30.0072 19.714 27.8834 22.5834 27.8697C25.4529 27.856 27.7908 29.9573 27.8059 32.5634V32.613M19.7055 19.1341C21.8582 20.5228 22.2463 23.6721 20.5725 26.1668C18.8987 28.6615 15.7962 29.5586 13.6436 28.1693C11.4913 26.7806 11.1028 23.6309 12.7766 21.1363C14.4507 18.6412 17.5529 17.7447 19.7055 19.1341ZM25.5158 18.882C23.3632 20.2714 22.9751 23.4204 24.6492 25.9154C26.3234 28.4104 29.4252 29.3073 31.5775 27.9176C33.7304 26.5289 34.1186 23.3799 32.4444 20.8845C30.7703 18.3899 27.6688 17.493 25.5158 18.882ZM9.07992 21.4193C11.4038 20.8058 9.86426 30.8904 7.97356 30.0628C5.89336 28.415 5.22364 23.5884 9.07992 21.4193ZM35.9382 21.2938C33.6141 20.6803 35.1536 30.7649 37.0446 29.9376C39.1248 28.2895 39.7945 23.4629 35.9382 21.2938ZM28.1434 13.7696C32.154 13.1024 35.4911 15.4494 35.3568 19.7335C35.2249 21.3757 26.6658 14.0143 28.1434 13.7696ZM17.0618 13.6438C13.0505 12.9765 9.71309 15.3242 9.84774 19.6084C9.97992 21.2502 18.5391 13.8884 17.0618 13.6438ZM22.587 12.6446C20.1932 12.5838 17.8961 14.3954 17.8901 15.4452C17.8838 16.722 19.7829 18.0292 22.6038 18.0622C25.4838 18.0822 27.3218 17.0163 27.3313 15.6986C27.3415 14.2059 24.7111 12.6218 22.587 12.6446ZM22.7719 38.8227C24.8591 38.7327 27.66 39.4847 27.6653 40.482C27.7001 41.4506 25.1252 43.6391 22.6337 43.5969C20.0532 43.7066 17.5227 41.5149 17.5557 40.7552C17.5171 39.6411 20.6984 38.7717 22.7719 38.8227ZM15.0481 32.9111C16.5338 34.6749 17.2112 37.7726 15.9713 38.6856C14.7984 39.3831 11.9494 39.0958 9.92367 36.2302C8.55856 33.8263 8.73434 31.3794 9.6934 30.6608C11.1274 29.8002 13.343 30.9624 15.0477 32.9108M30.0091 32.3522C28.4007 34.2074 27.5053 37.5904 28.6785 38.6799C29.8 39.5265 32.81 39.408 35.034 36.3688C36.6488 34.3276 36.1077 30.9192 35.1852 30.0139C33.8152 28.9698 31.8489 30.3057 30.0088 32.3518V32.3525" fill="#C51850"/>
</g>
<defs>
<clipPath id="clip0_179_4">
<rect width="45" height="45" fill="white"/>
</clipPath>
</defs>
</svg>
