<svg width="45" height="45" viewBox="0 0 45 45" fill="none" xmlns="http://www.w3.org/2000/svg">
<path d="M30.6011 0C28.3195 0 25.333 1.62633 22.3134 4.44691C19.2935 1.64285 16.3073 0.0330469 14.026 0.0330469V0.0411328C13.3292 0.0411328 12.6985 0.190898 12.1508 0.50625C9.81992 1.84992 9.2975 6.03949 10.5002 11.2989C5.34031 12.8914 1.98043 15.4385 1.98043 18.1262C1.98043 20.8227 5.35684 23.3771 10.5332 24.9613C9.33863 30.2375 9.86984 34.4348 12.2095 35.7789C12.7484 36.0939 13.3788 36.2436 14.0756 36.2436C16.3572 36.2436 19.3438 34.6173 22.3633 31.7971C25.3832 34.6008 28.3694 36.2109 30.6507 36.2109C31.3468 36.2109 31.9775 36.0615 32.5252 35.7462C34.8561 34.4021 35.3789 30.2126 34.1758 24.9532C39.3192 23.3691 42.6791 20.8143 42.6791 18.1259C42.6791 15.4304 39.303 12.8753 34.1263 11.2908C35.3209 6.01488 34.7896 1.81758 32.4504 0.473555C31.9135 0.159258 31.2856 0.0101953 30.6011 0.00914063V0ZM30.5923 1.85062V1.85801C30.9738 1.85801 31.2814 1.93289 31.538 2.07387C32.6666 2.72074 33.1559 5.1852 32.7745 8.35383C32.6831 9.13359 32.534 9.95484 32.3512 10.7926C30.7252 10.3946 28.9498 10.0877 27.0834 9.8884C25.9637 8.35383 24.8018 6.95988 23.6325 5.73996C26.3325 3.23156 28.8669 1.85555 30.5923 1.85062ZM14.026 1.88297C15.7434 1.88297 18.2898 3.2516 20.994 5.74875C19.7586 7.04864 18.614 8.43178 17.568 9.8884C15.6931 10.0877 13.9188 10.3946 12.2925 10.8011C12.1092 10.0066 11.965 9.20357 11.8604 8.39496C11.4709 5.22598 11.9518 2.76293 13.0719 2.10727C13.3204 1.9582 13.6449 1.89176 14.026 1.89176V1.88297ZM22.3053 7.05094C23.1192 7.89568 23.889 8.78186 24.6116 9.70594C23.8515 9.66981 23.0908 9.65059 22.3299 9.64828C21.5498 9.64828 20.7788 9.66445 20.024 9.70594C20.7359 8.78054 21.4973 7.89436 22.305 7.05129L22.3053 7.05094ZM22.3299 11.5063C23.5825 11.5063 24.8355 11.5646 26.0632 11.6641C26.775 12.6872 27.4447 13.7389 28.0706 14.8166C28.693 15.8917 29.2688 16.9931 29.7964 18.1178C29.2685 19.2435 28.6956 20.3476 28.079 21.4274C27.4322 22.5471 26.7677 23.6095 26.0797 24.5967C24.8432 24.7046 23.5906 24.762 22.3299 24.762C21.077 24.762 19.8247 24.7046 18.597 24.6052C17.8852 23.5823 17.2155 22.5307 16.5896 21.453C15.9672 20.3776 15.3914 19.2758 14.8638 18.1508C15.3884 17.0234 15.9614 15.9192 16.5812 14.8412C17.228 13.7215 17.8914 12.6594 18.5802 11.6722C19.8271 11.5627 21.0782 11.5073 22.3299 11.5063ZM16.1656 11.9373C15.7592 12.5761 15.3535 13.2311 14.9717 13.9032C14.5963 14.5583 14.2366 15.2222 13.8931 15.8945C13.4576 14.8136 13.0756 13.7118 12.7484 12.5933C13.8348 12.336 14.9795 12.1117 16.1656 11.9373ZM28.4773 11.9373C29.6551 12.1117 30.7913 12.3275 31.8784 12.5933C31.5711 13.6635 31.1893 14.766 30.7583 15.8699C30.4151 15.1958 30.0526 14.5318 29.6713 13.8786C29.2898 13.2149 28.8838 12.568 28.4773 11.9373ZM33.6699 13.0827C34.4599 13.3279 35.238 13.6102 36.0015 13.9286C38.9381 15.1812 40.8376 16.8237 40.8376 18.1262C40.8291 19.4287 38.9293 21.0793 35.9927 22.3239C35.279 22.6304 34.5 22.9046 33.6952 23.1616C33.2224 21.536 32.5998 19.8429 31.8284 18.1097C32.5913 16.3842 33.2052 14.7006 33.6696 13.0823L33.6699 13.0827ZM10.9562 13.0911C11.429 14.7168 12.0516 16.4088 12.823 18.1427C12.0601 19.8682 11.4459 21.5525 10.9815 23.1701C10.1939 22.9259 9.41872 22.6434 8.65871 22.3235C5.72211 21.0709 3.82191 19.4287 3.82191 18.1259C3.82191 16.8237 5.72211 15.1727 8.65871 13.9282C9.37238 13.6216 10.1514 13.3481 10.9562 13.0911ZM22.3215 14.3353C20.2279 14.3353 18.5306 16.0323 18.5306 18.1262C18.5306 20.2201 20.2279 21.9171 22.3215 21.9171C24.4154 21.9171 26.1124 20.2201 26.1124 18.1262C26.1124 16.0323 24.4154 14.3353 22.3215 14.3353ZM30.7583 20.3495C31.1938 21.4304 31.5758 22.5322 31.903 23.6507C30.7749 23.9253 29.6346 24.147 28.4858 24.3151C28.9001 23.6696 29.2982 23.0139 29.6797 22.3485C30.0552 21.6909 30.4149 21.0244 30.7583 20.3495ZM13.8931 20.3825C14.2362 21.0566 14.5985 21.7206 14.9798 22.3738C15.3648 23.0288 15.7634 23.6758 16.1751 24.3144C14.9974 24.1404 13.8597 23.9242 12.773 23.6587C13.08 22.5886 13.4621 21.4861 13.8931 20.3825ZM32.3677 25.4426C32.5586 26.2807 32.7077 27.0854 32.7991 27.8571C33.1886 31.0257 32.7077 33.4891 31.588 34.1445C31.3391 34.2939 31.016 34.361 30.6342 34.361C28.9168 34.361 26.3697 32.992 23.6652 30.4949C24.9012 29.1954 26.0461 27.8122 27.0918 26.3552C28.9664 26.1563 30.7421 25.849 32.3677 25.4426ZM12.309 25.4591C13.935 25.8574 15.7096 26.1643 17.5761 26.3633C18.6958 27.8982 19.8577 29.2918 21.0274 30.5118C18.3228 33.0254 15.7845 34.4021 14.0594 34.4021C13.6861 34.3937 13.3707 34.3192 13.1218 34.1782C11.9936 33.5313 11.5046 31.0672 11.8861 27.8982C11.9775 27.1185 12.1262 26.2972 12.309 25.4591ZM20.0405 26.5461C20.7873 26.5792 21.5502 26.6038 22.3215 26.6038C23.1013 26.6038 23.8729 26.5876 24.6277 26.5461C23.9157 27.4714 23.154 28.3575 22.3461 29.2004C21.5748 28.4041 20.8038 27.5164 20.0405 26.5461ZM34.9433 39.5251C34.8116 39.5254 34.7116 39.5633 34.6434 39.639C34.5778 39.715 34.5448 39.8077 34.5446 39.9171C34.5446 40.0268 34.5774 40.1182 34.643 40.1913C34.7115 40.2642 34.8117 40.3008 34.9436 40.301C35.1416 40.3014 35.1753 40.2641 35.2435 40.1913C35.3121 40.1168 35.3487 40.0183 35.3455 39.9171C35.3455 39.8074 35.3115 39.7148 35.2435 39.6394C35.1751 39.5632 35.0748 39.5251 34.9433 39.5251ZM1.87109 39.5989V44.9262H2.57703V42.7711H3.82859L4.98523 44.9262H5.73898V44.8822L4.48742 42.6213C4.80711 42.4992 5.0559 42.3149 5.23379 42.0683C5.41426 41.8222 5.50449 41.5332 5.50449 41.2014C5.50473 40.6792 5.34254 40.2816 5.01793 40.0085C4.69613 39.7352 4.235 39.5986 3.63453 39.5986L1.87109 39.5989ZM22.7761 39.5989V44.9262H23.4827V40.821L26.1648 44.9262H26.8714V39.5989H26.1718V43.7228L23.4827 39.5989H22.7761ZM18.6013 40.0085V40.9672H17.8805V41.4904H18.6013V43.9457C18.6013 44.2825 18.6779 44.5423 18.8312 44.7251C18.9854 44.9079 19.2137 44.9994 19.516 44.9996C19.6848 44.9996 19.858 44.9752 20.0356 44.9262V44.3777C19.899 44.407 19.7916 44.4217 19.7136 44.4217C19.5552 44.4217 19.443 44.3825 19.3771 44.3043C19.3115 44.2236 19.2787 44.1041 19.2787 43.9457V41.4904H20.017V40.9672H19.2787V40.0085H18.6013ZM32.3308 40.0085V40.9672H31.6098V41.4904H32.3305V43.9457C32.3307 44.2825 32.4076 44.5423 32.5611 44.7251C32.7148 44.9079 32.9428 44.9994 33.2449 44.9996C33.4136 44.9996 33.587 44.9752 33.7648 44.9262V44.3777C33.628 44.407 33.5206 44.4217 33.4428 44.4217C33.2844 44.4217 33.1722 44.3825 33.1064 44.3043C33.0407 44.2236 33.0078 44.1041 33.0076 43.9457V41.4904H33.7459V40.9672H33.0076V40.0085H32.3308ZM2.57703 40.1773H3.65281C4.02359 40.1794 4.3066 40.2684 4.50184 40.4445C4.69941 40.6195 4.7982 40.8718 4.7982 41.2014C4.7982 41.5037 4.69461 41.7451 4.48742 41.9256C4.28258 42.1063 4.00555 42.1968 3.65633 42.197H2.57703V40.1773ZM7.94539 40.8937C7.63039 40.8937 7.33766 40.9816 7.06719 41.1574C6.79883 41.3306 6.58906 41.5723 6.43789 41.8823C6.28859 42.1896 6.21406 42.5395 6.2143 42.9321V43.0566C6.2143 43.6467 6.3827 44.1186 6.71949 44.4723C7.05629 44.8239 7.49305 44.9996 8.02977 44.9996C8.69305 44.9996 9.19062 44.7446 9.5225 44.2346L9.10906 43.9126C8.9897 44.0685 8.84175 44.2002 8.67312 44.3007C8.50719 44.3982 8.3048 44.447 8.06598 44.447C7.72941 44.447 7.45133 44.3275 7.23172 44.0884C7.01469 43.847 6.90125 43.5312 6.89141 43.1409H9.57312V42.8586C9.57336 42.2268 9.43086 41.7414 9.14562 41.4025C8.86016 41.0633 8.46008 40.8937 7.94539 40.8937ZM11.9012 40.8937C11.6281 40.891 11.3576 40.9461 11.1073 41.0555C10.868 41.1623 10.6776 41.3085 10.5361 41.4939C10.3971 41.6769 10.3275 41.8673 10.3272 42.0652H11.0082C11.0082 41.8917 11.09 41.7441 11.2536 41.6222C11.417 41.5003 11.6192 41.4394 11.8604 41.4394C12.1365 41.4394 12.3453 41.5102 12.4869 41.6517C12.6282 41.7905 12.6989 41.9781 12.6989 42.2146V42.5257H12.0397C11.4713 42.5257 11.0298 42.6404 10.715 42.8699C10.4028 43.097 10.2467 43.4167 10.2467 43.8289C10.2467 44.1679 10.3713 44.4483 10.6204 44.6702C10.8717 44.8898 11.1923 44.9996 11.5823 44.9996C12.0192 44.9996 12.395 44.8363 12.7098 44.5096C12.7344 44.7095 12.766 44.8484 12.8047 44.9262H13.5148V44.8678C13.4223 44.6534 13.376 44.3643 13.376 44.0005V42.1784C13.3661 41.7783 13.2317 41.4649 12.9727 41.2383C12.7145 41.0086 12.3573 40.8937 11.9012 40.8937ZM16.0208 40.8937C15.6601 40.8937 15.3467 40.977 15.0807 41.1434C14.8173 41.3086 14.6148 41.5414 14.4732 41.8419C14.3316 42.1417 14.2609 42.4843 14.2609 42.8699V42.9831C14.2609 43.6079 14.4195 44.1009 14.7369 44.4621C15.0566 44.8207 15.4859 45 16.025 45C16.2934 45 16.547 44.9388 16.7858 44.8165C17.0163 44.7035 17.215 44.535 17.3641 44.3261C17.5082 44.1212 17.5865 43.9054 17.5989 43.6785H16.958C16.9386 43.8981 16.8386 44.081 16.6582 44.2273C16.4798 44.373 16.2556 44.4509 16.0254 44.447C15.6761 44.447 15.4075 44.3239 15.2196 44.0779C15.0321 43.8313 14.9383 43.4798 14.9383 43.0235V42.8959C14.9383 42.4274 15.0321 42.07 15.2196 41.8236C15.4099 41.5747 15.6771 41.4505 16.0211 41.451C16.2773 41.4507 16.4919 41.5335 16.6648 41.6992C16.8411 41.8625 16.9388 42.0723 16.958 42.3285H17.5989C17.579 41.9043 17.4215 41.5591 17.1264 41.2931C16.8335 41.0271 16.4649 40.894 16.0208 40.8937ZM29.5531 40.8937C29.2802 40.891 29.0098 40.9462 28.7596 41.0555C28.5204 41.1623 28.3299 41.3085 28.1884 41.4939C28.0494 41.6769 27.98 41.8673 27.9802 42.0652H28.6605C28.6605 41.8917 28.7423 41.7441 28.9059 41.6222C29.0693 41.5003 29.2715 41.4394 29.5127 41.4394C29.7888 41.4394 29.9976 41.5102 30.1392 41.6517C30.2805 41.7905 30.3512 41.9781 30.3512 42.2146V42.5257H29.6927C29.1239 42.5257 28.6821 42.6404 28.3673 42.8699C28.0551 43.097 27.899 43.4167 27.899 43.8289C27.899 44.1679 28.0236 44.4483 28.2727 44.6702C28.5237 44.8898 28.8444 44.9996 29.2346 44.9996C29.6715 44.9996 30.0473 44.8363 30.3621 44.5096C30.3862 44.7095 30.4179 44.8484 30.457 44.9262H31.1671V44.8678C31.0746 44.6534 31.0283 44.3643 31.0283 44.0005V42.1784C31.0182 41.7783 30.8838 41.4649 30.625 41.2383C30.3668 41.0086 30.0097 40.8937 29.5531 40.8937ZM41.501 40.8937C41.1886 40.893 40.8831 40.9848 40.6228 41.1574C40.3542 41.3306 40.1443 41.5723 39.9931 41.8823C39.8443 42.1896 39.7699 42.5395 39.7699 42.9321V43.0566C39.7699 43.6467 39.9384 44.1186 40.2754 44.4723C40.6118 44.8239 41.0482 44.9996 41.5847 44.9996C42.2484 44.9996 42.7462 44.7446 43.0781 44.2346L42.6646 43.9126C42.5453 44.0685 42.3973 44.2002 42.2287 44.3007C42.063 44.3982 41.8607 44.447 41.6219 44.447C41.2849 44.447 41.0068 44.3275 40.7877 44.0884C40.5704 43.847 40.4567 43.5312 40.4466 43.1409H43.1291V42.8586C43.1291 42.2268 42.9864 41.7414 42.7012 41.4025C42.416 41.0636 42.0159 40.894 41.501 40.8937ZM34.5995 40.9676V44.9262H35.2766V40.9676H34.5995ZM35.972 40.9676L37.4056 44.9262H37.9224L39.342 40.9676H38.6495L37.6693 44.0082L36.6638 40.9672L35.972 40.9676ZM7.94539 41.4506C8.22805 41.4506 8.45258 41.5455 8.61898 41.7354C8.78469 41.9234 8.87727 42.1894 8.89672 42.5334V42.5848H6.9132C6.95703 42.2262 7.07187 41.9479 7.25773 41.7498C7.34414 41.6535 7.45029 41.5769 7.56896 41.5254C7.68763 41.4738 7.81603 41.4481 7.94539 41.4506ZM41.501 41.4506C41.7839 41.4506 42.0082 41.5455 42.1739 41.7354C42.3398 41.9234 42.4324 42.1894 42.4516 42.5334V42.5848H40.4688C40.5126 42.2262 40.6273 41.9479 40.813 41.7498C40.8994 41.6534 41.0056 41.5769 41.1244 41.5253C41.2431 41.4737 41.3716 41.448 41.501 41.4506ZM12.168 43.0056H12.6989V43.8177C12.6136 43.9935 12.4757 44.1362 12.2854 44.2459C12.1023 44.3534 11.8938 44.4102 11.6814 44.4104C11.4593 44.4104 11.2776 44.3507 11.1365 44.2311C10.9947 44.1116 10.9238 43.9458 10.9238 43.7337C10.9238 43.2485 11.3387 43.0059 12.1684 43.0059L12.168 43.0056ZM29.82 43.0056H30.3508V43.8177C30.2657 43.9935 30.128 44.1362 29.9377 44.2459C29.7544 44.3535 29.5457 44.4103 29.333 44.4104C29.1116 44.4104 28.9299 44.3507 28.7881 44.2311C28.647 44.1116 28.5764 43.9458 28.5761 43.7337C28.5761 43.2485 28.991 43.0059 29.8207 43.0059L29.82 43.0056Z" fill="#61DAFB"/>
</svg>
