<svg width="32" height="32" viewBox="0 0 32 32" fill="none" xmlns="http://www.w3.org/2000/svg">
<path d="M16 32C7.16318 32 0 24.8368 0 16C0 7.16318 7.16318 0 16 0C24.8368 0 32 7.16318 32 16C32 24.8368 24.8368 32 16 32ZM16 1.74059C8.16736 1.74059 1.74059 8.16736 1.74059 16C1.74059 23.8326 8.16736 30.2594 16 30.2594C23.8326 30.2594 30.2594 23.8326 30.2594 16C30.2594 8.16736 23.8326 1.74059 16 1.74059Z" fill="#E1E1E1"/>
<path d="M15.2774 25L14 23.7518L22.3032 16L14 8.24819L15.2774 7L25 16L15.2774 25Z" fill="#E1E1E1"/>
<path d="M24 17H7V15H24V17Z" fill="#E1E1E1"/>
</svg>
